<svg width="364" height="358" viewBox="0 0 364 358" fill="none" xmlns="http://www.w3.org/2000/svg">
<path d="M310.29 357.453C310.29 357.572 251.137 357.674 178.192 357.674C105.247 357.674 46.0687 357.572 46.0687 357.453C46.0687 357.333 105.213 357.231 178.192 357.231C251.171 357.231 310.29 357.342 310.29 357.453Z" fill="#263238"/>
<path d="M252.653 253.13C239.492 243.935 236.511 226.866 237.03 211.519C237.116 208.962 236.834 206.252 238.053 204.011C239.271 201.77 242.116 200.228 244.407 201.301C246.307 202.196 247.133 204.412 248.198 206.244C249.619 208.684 251.701 210.672 254.204 211.979C255.831 212.831 257.85 213.342 259.46 212.456C261.675 211.238 261.93 208.195 261.913 205.639C261.913 200.884 261.885 196.134 261.828 191.391C261.675 188.843 261.934 186.288 262.595 183.823C263.387 181.403 265.15 179.162 267.561 178.48C269.972 177.798 272.979 179.204 273.524 181.693C273.618 182.747 273.643 183.806 273.601 184.863C273.669 185.928 274.163 187.096 275.16 187.419C276.156 187.743 277.196 187.002 277.962 186.252C280.586 183.695 282.375 180.363 284.036 177.074C285.697 173.785 287.324 170.402 289.709 167.598C292.095 164.794 295.391 162.57 299.08 162.357C302.768 162.144 306.61 164.411 307.53 167.99C308.45 171.569 306.363 175.225 304.123 178.131C300.742 182.444 296.757 186.247 292.291 189.422C291.419 189.898 290.723 190.642 290.306 191.544C289.752 193.248 291.362 194.953 293.04 195.489C294.94 196.12 297.001 195.924 299.003 196.163C301.005 196.401 303.135 197.27 303.893 199.145C304.932 201.753 302.751 204.48 300.613 206.269C296.32 209.849 291.445 212.665 286.2 214.595C284.326 215.277 282.358 215.882 280.842 217.194C279.325 218.507 278.422 220.799 279.334 222.597C280.245 224.395 282.588 224.966 284.556 224.6C286.523 224.233 288.27 223.176 290.144 222.469C293.645 221.148 298.16 221.387 300.366 224.412C301.05 225.454 301.482 226.641 301.63 227.878C301.778 229.116 301.637 230.371 301.218 231.545C300.365 233.881 299.053 236.022 297.359 237.842C291.78 244.511 284.53 249.578 276.352 252.525C268.234 255.337 260.712 256.104 252.645 253.147" fill="#220F97"/>
<path d="M303.782 164.462C303.782 164.462 303.705 164.547 303.535 164.701L302.777 165.374C302.112 165.97 301.133 166.84 299.897 167.99C296.395 171.243 293.143 174.755 290.169 178.497C288.269 180.858 286.302 183.534 284.206 186.439C282.111 189.345 279.947 192.481 277.8 195.813C275.511 199.327 273.416 202.963 271.522 206.704C270.534 208.656 269.665 210.692 268.77 212.771L266.13 219.12C262.649 227.117 259.617 235.302 257.049 243.637C254.98 250.457 253.554 257.455 252.789 264.541C252.294 269.323 252.214 274.138 252.551 278.934C252.687 280.638 252.815 281.942 252.934 282.828C252.985 283.254 253.019 283.595 253.054 283.842V284.192C253.017 284.081 252.991 283.967 252.977 283.851C252.934 283.604 252.883 283.271 252.815 282.845C252.662 281.993 252.5 280.647 252.347 278.942C251.936 274.138 251.964 269.306 252.432 264.507C253.149 257.391 254.544 250.36 256.597 243.509C259.144 235.151 262.167 226.945 265.653 218.933L268.361 212.61C269.256 210.539 270.133 208.485 271.13 206.525C273.037 202.772 275.15 199.128 277.459 195.609C279.64 192.2 281.838 189.115 283.908 186.235C285.978 183.355 287.98 180.662 289.871 178.31C292.875 174.578 296.171 171.09 299.727 167.879C300.988 166.746 301.993 165.894 302.674 165.323L303.467 164.684C303.564 164.599 303.669 164.525 303.782 164.462Z" fill="#263238"/>
<path d="M271.241 206.508C271.121 206.157 271.038 205.794 270.994 205.426C270.857 204.719 270.704 203.721 270.525 202.426C270.159 199.87 269.784 196.367 269.384 192.49C268.983 188.613 268.532 185.102 268.157 182.571C267.961 181.309 267.791 180.295 267.672 179.588C267.578 179.226 267.53 178.854 267.527 178.48C267.673 178.822 267.779 179.179 267.842 179.545C268.029 180.244 268.242 181.25 268.481 182.52C268.966 185.076 269.443 188.553 269.844 192.439C270.244 196.325 270.585 199.733 270.849 202.384C270.977 203.577 271.088 204.591 271.173 205.4C271.239 205.766 271.262 206.137 271.241 206.508Z" fill="#263238"/>
<path d="M304.02 200.389C303.606 200.48 303.184 200.531 302.76 200.543C301.908 200.62 300.698 200.722 299.199 200.892C296.2 201.216 292.077 201.813 287.554 202.665C283.031 203.517 278.967 204.48 276.045 205.221C274.589 205.596 273.413 205.937 272.638 206.167C272.224 206.314 271.796 206.417 271.36 206.474C271.754 206.276 272.164 206.113 272.587 205.988C273.388 205.707 274.546 205.315 275.994 204.897C278.899 204.045 282.962 203.031 287.503 202.162C291.349 201.426 295.23 200.886 299.131 200.543C300.639 200.415 301.857 200.364 302.709 200.347C303.146 200.317 303.586 200.331 304.02 200.389Z" fill="#263238"/>
<path d="M257.015 242.913C256.924 242.789 256.849 242.655 256.793 242.512L256.231 241.328C255.745 240.297 255.09 238.771 254.306 236.905C252.721 233.155 250.702 227.906 248.556 222.077C246.409 216.248 244.433 210.999 242.933 207.207C242.201 205.366 241.596 203.858 241.145 202.733L240.668 201.514C240.601 201.374 240.556 201.225 240.531 201.071C240.622 201.195 240.697 201.329 240.753 201.472L241.315 202.656C241.792 203.687 242.456 205.213 243.24 207.079C244.825 210.829 246.844 216.078 248.99 221.907C251.137 227.736 253.113 232.985 254.612 236.777C255.345 238.618 255.95 240.126 256.393 241.251C256.589 241.737 256.751 242.103 256.878 242.47C256.945 242.61 256.99 242.759 257.015 242.913Z" fill="#263238"/>
<path d="M300.528 228.877C300.391 228.956 300.245 229.016 300.093 229.056L298.833 229.483L294.173 230.991C290.237 232.269 284.802 234.093 278.839 236.104C272.876 238.115 267.416 239.905 263.455 241.098C261.478 241.703 259.868 242.163 258.753 242.47L257.466 242.802C257.317 242.849 257.162 242.881 257.006 242.896C257.143 242.817 257.289 242.757 257.441 242.717L258.701 242.291L263.361 240.782C267.297 239.504 272.732 237.68 278.695 235.669C284.658 233.658 290.109 231.869 294.071 230.676C296.055 230.071 297.657 229.61 298.781 229.304L300.068 228.971C300.217 228.924 300.372 228.892 300.528 228.877Z" fill="#263238"/>
<path d="M237.925 292.85L152.832 292.458C147.918 292.431 143.216 290.454 139.758 286.961C136.3 283.468 134.369 278.745 134.39 273.829L135.293 60.4377C135.303 58.0022 135.792 55.5926 136.734 53.3466C137.675 51.1006 139.05 49.0623 140.78 47.348C142.509 45.6338 144.559 44.2774 146.813 43.3562C149.067 42.4351 151.48 41.9673 153.914 41.9797L238.998 42.3717C243.912 42.3965 248.615 44.3713 252.075 47.8625C255.535 51.3537 257.468 56.0758 257.449 60.9916L256.546 274.375C256.536 276.811 256.047 279.221 255.105 281.468C254.164 283.715 252.79 285.755 251.061 287.47C249.331 289.186 247.281 290.544 245.027 291.467C242.774 292.39 240.36 292.86 237.925 292.85Z" fill="#455A64"/>
<path d="M238.87 49.7088H222.378C221.84 49.7188 221.309 49.8347 220.816 50.05C220.323 50.2653 219.877 50.5756 219.503 50.9634C219.13 51.3512 218.836 51.8087 218.64 52.3099C218.443 52.8111 218.347 53.3461 218.357 53.8844V56.8756C218.368 57.4135 218.272 57.9481 218.075 58.4488C217.878 58.9495 217.585 59.4065 217.211 59.7936C216.838 60.1806 216.392 60.4902 215.898 60.7046C215.405 60.9189 214.874 61.0338 214.337 61.0427L182.187 60.8978C181.1 60.8688 180.068 60.4092 179.319 59.6199C178.57 58.8306 178.165 57.7761 178.192 56.6881V53.697C178.22 52.6104 177.816 51.5572 177.068 50.7681C176.321 49.9791 175.292 49.5185 174.206 49.4873H168.404L153.965 49.4191C150.531 49.3986 147.228 50.7404 144.781 53.1505C142.333 55.5607 140.94 58.8428 140.906 62.2783L140.054 270.566C140.047 272.27 140.374 273.959 141.019 275.537C141.664 277.114 142.613 278.55 143.812 279.76C145.011 280.971 146.437 281.934 148.008 282.593C149.579 283.252 151.265 283.596 152.969 283.604L237.882 283.996C239.587 284.004 241.277 283.675 242.855 283.03C244.433 282.385 245.868 281.435 247.08 280.234C248.291 279.034 249.253 277.606 249.913 276.034C250.573 274.461 250.916 272.774 250.924 271.068L251.776 62.7811C251.796 59.3359 250.448 56.0236 248.028 53.5723C245.608 51.121 242.314 49.7314 238.87 49.7088Z" fill="white"/>
<path d="M227.447 256.206L164.307 255.934C163.651 255.934 163.123 255.218 163.131 254.349L163.2 237.825C163.2 236.973 163.736 236.24 164.392 236.24L227.532 236.53C227.896 236.593 228.221 236.794 228.44 237.09C228.659 237.387 228.755 237.757 228.708 238.123L228.648 254.63C228.648 255.508 228.103 256.215 227.447 256.206Z" fill="#220F97"/>
<path d="M182.28 243.166C182.139 243.166 182.003 243.143 181.873 243.098C181.744 243.051 181.645 242.991 181.574 242.919L181.653 242.764C181.72 242.829 181.809 242.884 181.921 242.93C182.036 242.973 182.155 242.995 182.28 242.995C182.399 242.995 182.496 242.98 182.57 242.951C182.646 242.921 182.702 242.88 182.736 242.829C182.772 242.779 182.79 242.722 182.79 242.661C182.79 242.587 182.769 242.527 182.725 242.482C182.683 242.436 182.628 242.401 182.559 242.376C182.491 242.349 182.415 242.325 182.331 242.305C182.248 242.285 182.165 242.265 182.082 242.243C181.998 242.219 181.921 242.189 181.851 242.151C181.782 242.113 181.726 242.063 181.683 242.001C181.641 241.938 181.62 241.856 181.62 241.754C181.62 241.66 181.645 241.574 181.693 241.496C181.744 241.417 181.821 241.353 181.924 241.306C182.027 241.257 182.159 241.233 182.321 241.233C182.427 241.233 182.533 241.248 182.638 241.279C182.743 241.308 182.834 241.349 182.91 241.401L182.842 241.561C182.76 241.507 182.673 241.467 182.581 241.442C182.491 241.417 182.403 241.404 182.318 241.404C182.204 241.404 182.11 241.419 182.036 241.45C181.961 241.481 181.906 241.523 181.87 241.575C181.836 241.626 181.818 241.684 181.818 241.749C181.818 241.823 181.839 241.883 181.881 241.928C181.924 241.973 181.98 242.008 182.049 242.034C182.12 242.059 182.197 242.082 182.28 242.102C182.363 242.122 182.445 242.143 182.527 242.167C182.61 242.19 182.686 242.221 182.755 242.259C182.826 242.295 182.882 242.344 182.923 242.406C182.967 242.467 182.988 242.548 182.988 242.647C182.988 242.74 182.963 242.826 182.912 242.905C182.862 242.983 182.784 243.046 182.679 243.095C182.576 243.142 182.443 243.166 182.28 243.166ZM183.426 243.15V241.249H183.627V243.15H183.426ZM184.245 243.15V241.249H184.411L185.722 242.9H185.635V241.249H185.833V243.15H185.668L184.359 241.499H184.446V243.15H184.245ZM187.287 243.166C187.142 243.166 187.008 243.142 186.885 243.095C186.764 243.046 186.658 242.979 186.568 242.892C186.479 242.805 186.409 242.703 186.359 242.585C186.31 242.467 186.285 242.339 186.285 242.199C186.285 242.06 186.31 241.932 186.359 241.814C186.409 241.696 186.48 241.594 186.57 241.507C186.661 241.42 186.767 241.353 186.888 241.306C187.011 241.257 187.145 241.233 187.29 241.233C187.435 241.233 187.567 241.256 187.686 241.301C187.807 241.346 187.911 241.415 187.996 241.507L187.871 241.635C187.791 241.555 187.703 241.498 187.607 241.464C187.512 241.429 187.408 241.412 187.298 241.412C187.18 241.412 187.072 241.432 186.972 241.472C186.874 241.51 186.789 241.565 186.714 241.637C186.642 241.708 186.585 241.791 186.543 241.887C186.503 241.981 186.484 242.085 186.484 242.199C186.484 242.312 186.503 242.416 186.543 242.512C186.585 242.608 186.642 242.692 186.714 242.764C186.789 242.835 186.874 242.89 186.972 242.93C187.072 242.968 187.179 242.987 187.295 242.987C187.404 242.987 187.506 242.97 187.602 242.938C187.7 242.905 187.789 242.85 187.871 242.772L187.985 242.924C187.894 243.004 187.788 243.065 187.667 243.106C187.546 243.146 187.419 243.166 187.287 243.166ZM187.792 242.9V242.199H187.985V242.924L187.792 242.9ZM190.029 243.166C189.787 243.166 189.596 243.096 189.457 242.957C189.317 242.817 189.248 242.611 189.248 242.338V241.249H189.449V242.33C189.449 242.554 189.499 242.72 189.601 242.827C189.702 242.933 189.845 242.987 190.029 242.987C190.216 242.987 190.36 242.933 190.461 242.827C190.562 242.72 190.613 242.554 190.613 242.33V241.249H190.809V242.338C190.809 242.611 190.739 242.817 190.6 242.957C190.462 243.096 190.272 243.166 190.029 243.166ZM191.414 243.15V241.249H192.125C192.286 241.249 192.425 241.275 192.541 241.328C192.656 241.379 192.745 241.453 192.807 241.551C192.87 241.646 192.902 241.763 192.902 241.901C192.902 242.035 192.87 242.151 192.807 242.248C192.745 242.344 192.656 242.418 192.541 242.471C192.425 242.523 192.286 242.55 192.125 242.55H191.525L191.615 242.455V243.15H191.414ZM191.615 242.471L191.525 242.373H192.12C192.31 242.373 192.454 242.332 192.551 242.251C192.651 242.168 192.701 242.051 192.701 241.901C192.701 241.749 192.651 241.631 192.551 241.548C192.454 241.465 192.31 241.423 192.12 241.423H191.525L191.615 241.328V242.471Z" fill="#E8E8E3"/>
<path d="M176.901 110.937L154.991 110.838L154.973 114.86L176.883 114.96L176.901 110.937Z" fill="#220F97"/>
<path opacity="0.1" d="M176.901 110.937L154.991 110.838L154.973 114.86L176.883 114.96L176.901 110.937Z" fill="black"/>
<path d="M241.128 135.633C241.3 135.616 241.469 135.576 241.63 135.514C241.866 135.422 242.071 135.265 242.222 135.061C242.372 134.858 242.463 134.616 242.482 134.363C242.482 133.008 242.482 131.031 242.482 128.492C242.482 127.222 242.482 125.799 242.482 124.231C242.482 123.848 242.482 123.447 242.482 123.047C242.538 122.658 242.453 122.262 242.244 121.93C242.126 121.771 241.974 121.641 241.798 121.551C241.622 121.461 241.428 121.413 241.23 121.41H239.901H227.592L156.342 121.146C156.16 121.143 155.979 121.184 155.816 121.266C155.653 121.347 155.512 121.467 155.405 121.615C155.199 121.948 155.121 122.345 155.184 122.731C155.184 123.583 155.184 124.436 155.184 125.288C155.184 126.992 155.184 128.696 155.184 130.401C155.184 131.253 155.184 132.105 155.184 132.957C155.148 133.354 155.148 133.753 155.184 134.15C155.228 134.32 155.311 134.478 155.427 134.611C155.542 134.744 155.686 134.849 155.848 134.917C156.016 134.984 156.196 135.016 156.376 135.011H160.712L179.632 135.113L211.662 135.309L233.257 135.48L239.126 135.548H240.651C241 135.548 241.17 135.548 241.17 135.548H240.651H239.126H233.257H211.662L179.632 135.446L160.712 135.369H156.376C156.138 135.379 155.9 135.338 155.678 135.25C155.453 135.154 155.254 135.008 155.094 134.823C154.935 134.639 154.82 134.42 154.758 134.184C154.708 133.961 154.691 133.731 154.707 133.503V132.872C154.707 132.02 154.707 131.168 154.707 130.316C154.707 128.611 154.707 126.907 154.707 125.202C154.707 124.35 154.707 123.498 154.707 122.646C154.69 122.419 154.69 122.191 154.707 121.964C154.738 121.714 154.835 121.476 154.988 121.274C155.135 121.068 155.329 120.901 155.555 120.787C155.78 120.673 156.03 120.615 156.282 120.618L227.532 121.01L239.841 121.095H241.17C241.404 121.095 241.635 121.152 241.843 121.26C242.05 121.368 242.229 121.525 242.363 121.717C242.603 122.088 242.7 122.533 242.636 122.97C242.636 123.37 242.636 123.771 242.636 124.154C242.636 125.705 242.636 127.128 242.636 128.415C242.636 130.972 242.576 132.932 242.559 134.295C242.538 134.557 242.443 134.808 242.284 135.018C242.126 135.228 241.911 135.388 241.664 135.48C241.503 135.58 241.317 135.633 241.128 135.633Z" fill="#E0E0E0"/>
<path d="M201.644 125.424H161.573V129.182H201.644V125.424Z" fill="#220F97"/>
<path opacity="0.2" d="M201.644 125.424H161.573V129.182H201.644V125.424Z" fill="white"/>
<path d="M176.752 147.631L154.842 147.531L154.824 151.553L176.733 151.653L176.752 147.631Z" fill="#220F97"/>
<path opacity="0.1" d="M176.752 147.631L154.842 147.531L154.824 151.553L176.733 151.653L176.752 147.631Z" fill="black"/>
<path d="M240.574 172.327C240.746 172.306 240.917 172.275 241.085 172.234C241.323 172.158 241.542 172.032 241.727 171.864C241.912 171.697 242.059 171.492 242.158 171.262C242.293 170.918 242.345 170.548 242.312 170.18C242.312 169.771 242.312 169.328 242.312 168.834C242.312 167.845 242.312 166.72 242.312 165.425V160.014C242.352 159.622 242.266 159.227 242.065 158.889C241.855 158.541 241.524 158.284 241.136 158.164C240.712 158.089 240.28 158.066 239.85 158.096H227.592L156.589 157.832C156.207 157.833 155.839 157.973 155.552 158.225C155.265 158.477 155.08 158.825 155.03 159.204C155.03 160.014 155.03 160.908 155.03 161.761C155.03 163.465 155.03 165.169 155.03 166.874C155.03 167.726 155.03 168.578 155.03 169.43C154.998 169.828 155.016 170.229 155.081 170.623C155.188 170.969 155.407 171.269 155.703 171.475C156.018 171.675 156.387 171.77 156.759 171.748H157.944H160.405L179.257 171.842L211.176 172.038L232.694 172.208L238.547 172.276H232.694H211.176L179.24 172.242L160.388 172.174H156.683C156.222 172.201 155.765 172.079 155.379 171.825C154.992 171.556 154.709 171.162 154.579 170.708C154.502 170.275 154.479 169.835 154.511 169.396C154.511 168.544 154.511 167.692 154.511 166.839C154.511 165.135 154.511 163.431 154.511 161.726C154.511 160.874 154.511 160.022 154.511 159.17C154.573 158.683 154.81 158.235 155.179 157.91C155.547 157.585 156.021 157.406 156.512 157.406L227.515 157.798L239.773 157.892C240.23 157.864 240.688 157.895 241.136 157.985C241.579 158.13 241.952 158.434 242.184 158.838C242.404 159.213 242.5 159.649 242.457 160.082C242.457 160.482 242.457 160.874 242.457 161.266C242.457 162.809 242.457 164.223 242.457 165.527C242.457 166.831 242.457 167.93 242.457 168.936C242.457 169.422 242.457 169.873 242.457 170.291C242.488 170.672 242.426 171.055 242.278 171.407C242.167 171.642 242.007 171.851 241.809 172.018C241.61 172.186 241.378 172.309 241.128 172.379C240.942 172.394 240.754 172.377 240.574 172.327Z" fill="#E0E0E0"/>
<path d="M176.586 185.917L154.677 185.818L154.659 189.84L176.568 189.94L176.586 185.917Z" fill="#220F97"/>
<path opacity="0.1" d="M176.586 185.917L154.677 185.818L154.659 189.84L176.568 189.94L176.586 185.917Z" fill="black"/>
<path d="M240.404 210.598C240.576 210.578 240.747 210.547 240.915 210.505C241.152 210.429 241.37 210.305 241.555 210.139C241.74 209.973 241.888 209.769 241.988 209.542C242.122 209.198 242.174 208.827 242.142 208.459C242.142 208.042 242.142 207.607 242.142 207.105C242.142 206.125 242.142 204.991 242.142 203.696V198.285C242.182 197.893 242.096 197.498 241.895 197.16C241.679 196.819 241.35 196.565 240.966 196.444C240.542 196.365 240.11 196.339 239.68 196.367H227.421L156.419 196.103C156.037 196.104 155.668 196.244 155.382 196.496C155.095 196.748 154.91 197.096 154.86 197.475C154.86 198.327 154.86 199.179 154.86 200.031C154.86 201.736 154.86 203.44 154.86 205.145C154.86 205.997 154.86 206.849 154.86 207.701C154.828 208.096 154.845 208.494 154.911 208.886C155.013 209.233 155.233 209.535 155.533 209.738C155.846 209.942 156.217 210.038 156.589 210.01H160.295L179.147 210.113L211.066 210.309L232.584 210.479L238.436 210.547H232.584H211.066L179.147 210.454L160.295 210.377H156.589C156.128 210.408 155.67 210.285 155.286 210.027C154.898 209.759 154.615 209.364 154.485 208.911C154.409 208.478 154.386 208.037 154.417 207.599C154.417 206.747 154.417 205.894 154.417 205.042C154.417 203.338 154.417 201.634 154.417 199.929C154.417 199.077 154.417 198.225 154.417 197.33C154.477 196.844 154.713 196.396 155.08 196.071C155.447 195.746 155.92 195.567 156.41 195.566L227.413 195.958L239.671 196.052C240.128 196.024 240.586 196.055 241.034 196.146C241.477 196.29 241.85 196.594 242.082 196.998C242.302 197.373 242.398 197.809 242.355 198.242C242.355 198.642 242.355 199.043 242.355 199.426C242.355 200.969 242.355 202.383 242.355 203.687C242.355 204.991 242.355 206.09 242.355 207.096C242.355 207.582 242.355 208.033 242.355 208.451C242.387 208.832 242.326 209.215 242.176 209.567C242.065 209.802 241.905 210.011 241.707 210.179C241.508 210.346 241.276 210.469 241.026 210.539C240.826 210.607 240.613 210.628 240.404 210.598Z" fill="#E0E0E0"/>
<path d="M200.788 163.181L160.717 162.999L160.7 166.757L200.771 166.939L200.788 163.181Z" fill="#220F97"/>
<path opacity="0.2" d="M200.788 163.181L160.717 162.999L160.7 166.757L200.771 166.939L200.788 163.181Z" fill="white"/>
<path d="M164.341 203.645C164.316 203.987 164.191 204.315 163.981 204.588C163.771 204.86 163.486 205.065 163.161 205.176C162.837 205.288 162.486 205.302 162.153 205.216C161.821 205.131 161.52 204.949 161.29 204.694C161.059 204.439 160.909 204.122 160.856 203.783C160.804 203.443 160.853 203.095 160.996 202.783C161.14 202.471 161.372 202.207 161.664 202.026C161.955 201.844 162.294 201.752 162.637 201.761C163.112 201.788 163.557 202 163.876 202.353C164.195 202.706 164.362 203.17 164.341 203.645Z" fill="#220F97"/>
<path d="M169.767 203.67C169.784 203.91 169.751 204.152 169.671 204.379C169.591 204.606 169.464 204.814 169.3 204.99C169.136 205.166 168.937 205.306 168.716 205.402C168.496 205.498 168.258 205.548 168.017 205.548C167.776 205.548 167.538 205.498 167.317 205.402C167.096 205.306 166.898 205.166 166.733 204.99C166.569 204.814 166.443 204.606 166.363 204.379C166.282 204.152 166.249 203.91 166.266 203.67C166.249 203.43 166.282 203.189 166.363 202.962C166.443 202.735 166.569 202.527 166.733 202.351C166.898 202.175 167.096 202.034 167.317 201.938C167.538 201.842 167.776 201.793 168.017 201.793C168.258 201.793 168.496 201.842 168.716 201.938C168.937 202.034 169.136 202.175 169.3 202.351C169.464 202.527 169.591 202.735 169.671 202.962C169.751 203.189 169.784 203.43 169.767 203.67Z" fill="#220F97"/>
<path d="M175.202 203.696C175.177 204.039 175.052 204.366 174.842 204.639C174.633 204.911 174.348 205.116 174.023 205.227C173.698 205.339 173.347 205.353 173.014 205.267C172.682 205.182 172.382 205 172.151 204.745C171.92 204.49 171.77 204.173 171.718 203.834C171.665 203.494 171.714 203.146 171.858 202.834C172.001 202.522 172.233 202.259 172.525 202.077C172.816 201.895 173.155 201.803 173.499 201.812C173.972 201.841 174.416 202.054 174.735 202.406C175.053 202.758 175.221 203.221 175.202 203.696Z" fill="#220F97"/>
<path d="M180.629 203.721C180.604 204.064 180.478 204.392 180.269 204.664C180.059 204.937 179.774 205.141 179.449 205.253C179.124 205.365 178.774 205.379 178.441 205.293C178.108 205.207 177.808 205.026 177.577 204.771C177.347 204.516 177.196 204.199 177.144 203.859C177.092 203.52 177.141 203.172 177.284 202.86C177.428 202.547 177.66 202.284 177.951 202.103C178.243 201.921 178.582 201.829 178.925 201.838C179.399 201.867 179.843 202.08 180.161 202.432C180.48 202.784 180.647 203.247 180.629 203.721Z" fill="#220F97"/>
<path d="M186.055 203.738C186.032 204.082 185.908 204.41 185.699 204.684C185.49 204.957 185.206 205.163 184.881 205.276C184.556 205.39 184.205 205.405 183.872 205.32C183.538 205.235 183.237 205.054 183.006 204.799C182.774 204.545 182.623 204.228 182.57 203.888C182.517 203.548 182.566 203.2 182.709 202.887C182.852 202.574 183.085 202.31 183.377 202.128C183.668 201.946 184.007 201.854 184.351 201.864C184.824 201.892 185.266 202.104 185.584 202.454C185.902 202.805 186.071 203.265 186.055 203.738Z" fill="#220F97"/>
<path d="M191.49 203.764C191.467 204.106 191.344 204.433 191.137 204.705C190.93 204.978 190.649 205.185 190.326 205.299C190.004 205.414 189.655 205.431 189.322 205.35C188.99 205.269 188.689 205.092 188.455 204.841C188.222 204.591 188.067 204.278 188.009 203.94C187.952 203.603 187.994 203.256 188.131 202.942C188.268 202.629 188.493 202.362 188.78 202.175C189.066 201.988 189.401 201.888 189.744 201.889C190.223 201.907 190.677 202.114 191.004 202.466C191.331 202.817 191.506 203.284 191.49 203.764Z" fill="#220F97"/>
<path d="M196.916 203.79C196.933 204.03 196.9 204.271 196.82 204.498C196.739 204.725 196.613 204.933 196.449 205.109C196.285 205.285 196.086 205.426 195.865 205.522C195.644 205.618 195.406 205.667 195.166 205.667C194.925 205.667 194.687 205.618 194.466 205.522C194.245 205.426 194.046 205.285 193.882 205.109C193.718 204.933 193.592 204.725 193.511 204.498C193.431 204.271 193.398 204.03 193.415 203.79C193.398 203.549 193.431 203.308 193.511 203.081C193.592 202.854 193.718 202.646 193.882 202.47C194.046 202.294 194.245 202.153 194.466 202.057C194.687 201.961 194.925 201.912 195.166 201.912C195.406 201.912 195.644 201.961 195.865 202.057C196.086 202.153 196.285 202.294 196.449 202.47C196.613 202.646 196.739 202.854 196.82 203.081C196.9 203.308 196.933 203.549 196.916 203.79Z" fill="#220F97"/>
<path d="M202.343 203.815C202.319 204.157 202.197 204.484 201.99 204.757C201.783 205.029 201.501 205.236 201.179 205.35C200.856 205.465 200.507 205.482 200.175 205.401C199.843 205.32 199.541 205.143 199.308 204.893C199.075 204.642 198.92 204.329 198.862 203.992C198.804 203.654 198.847 203.307 198.983 202.993C199.12 202.68 199.346 202.413 199.633 202.226C199.919 202.039 200.254 201.939 200.596 201.94C201.076 201.958 201.529 202.165 201.857 202.517C202.184 202.868 202.359 203.335 202.343 203.815Z" fill="#220F97"/>
<path d="M207.769 203.841C207.745 204.184 207.622 204.513 207.413 204.786C207.204 205.06 206.92 205.266 206.595 205.379C206.27 205.492 205.919 205.507 205.585 205.422C205.252 205.337 204.951 205.156 204.72 204.902C204.488 204.647 204.337 204.33 204.284 203.99C204.231 203.65 204.28 203.302 204.423 202.989C204.566 202.676 204.798 202.413 205.09 202.231C205.382 202.049 205.721 201.957 206.065 201.966C206.537 201.995 206.98 202.207 207.298 202.557C207.616 202.907 207.785 203.368 207.769 203.841Z" fill="#220F97"/>
<g opacity="0.2">
<path d="M164.341 203.645C164.316 203.987 164.191 204.315 163.981 204.588C163.771 204.86 163.486 205.065 163.161 205.176C162.837 205.288 162.486 205.302 162.153 205.216C161.821 205.131 161.52 204.949 161.29 204.694C161.059 204.439 160.909 204.122 160.856 203.783C160.804 203.443 160.853 203.095 160.996 202.783C161.14 202.471 161.372 202.207 161.664 202.026C161.955 201.844 162.294 201.752 162.637 201.761C163.112 201.788 163.557 202 163.876 202.353C164.195 202.706 164.362 203.17 164.341 203.645Z" fill="white"/>
<path d="M169.767 203.67C169.784 203.911 169.751 204.152 169.671 204.379C169.59 204.606 169.464 204.814 169.3 204.99C169.136 205.166 168.937 205.306 168.716 205.402C168.496 205.498 168.257 205.548 168.017 205.548C167.776 205.548 167.538 205.498 167.317 205.402C167.096 205.306 166.898 205.166 166.733 204.99C166.569 204.814 166.443 204.606 166.363 204.379C166.282 204.152 166.249 203.911 166.266 203.67C166.249 203.43 166.282 203.189 166.363 202.962C166.443 202.735 166.569 202.527 166.733 202.351C166.898 202.175 167.096 202.034 167.317 201.938C167.538 201.842 167.776 201.793 168.017 201.793C168.257 201.793 168.496 201.842 168.716 201.938C168.937 202.034 169.136 202.175 169.3 202.351C169.464 202.527 169.59 202.735 169.671 202.962C169.751 203.189 169.784 203.43 169.767 203.67Z" fill="white"/>
<path d="M175.202 203.696C175.177 204.039 175.052 204.366 174.842 204.639C174.632 204.911 174.347 205.116 174.023 205.227C173.698 205.339 173.347 205.353 173.014 205.267C172.682 205.182 172.381 205 172.151 204.745C171.92 204.49 171.77 204.173 171.717 203.834C171.665 203.494 171.714 203.146 171.858 202.834C172.001 202.522 172.233 202.259 172.525 202.077C172.816 201.895 173.155 201.803 173.498 201.812C173.972 201.841 174.416 202.054 174.734 202.406C175.053 202.758 175.221 203.221 175.202 203.696Z" fill="white"/>
<path d="M180.629 203.721C180.603 204.064 180.478 204.392 180.268 204.664C180.059 204.937 179.774 205.141 179.449 205.253C179.124 205.365 178.773 205.379 178.441 205.293C178.108 205.207 177.808 205.026 177.577 204.771C177.347 204.516 177.196 204.199 177.144 203.859C177.092 203.52 177.14 203.172 177.284 202.86C177.427 202.547 177.659 202.284 177.951 202.103C178.243 201.921 178.581 201.829 178.925 201.838C179.399 201.867 179.842 202.08 180.161 202.432C180.479 202.784 180.647 203.247 180.629 203.721Z" fill="white"/>
<path d="M186.055 203.738C186.031 204.082 185.907 204.411 185.699 204.684C185.49 204.957 185.205 205.163 184.88 205.277C184.556 205.39 184.205 205.405 183.871 205.32C183.538 205.235 183.237 205.054 183.006 204.799C182.774 204.545 182.623 204.228 182.57 203.888C182.517 203.548 182.566 203.2 182.709 202.887C182.852 202.574 183.084 202.31 183.376 202.128C183.668 201.947 184.007 201.854 184.351 201.864C184.823 201.892 185.266 202.104 185.584 202.454C185.902 202.805 186.071 203.265 186.055 203.738Z" fill="white"/>
<path d="M191.49 203.764C191.466 204.105 191.344 204.433 191.137 204.705C190.93 204.978 190.648 205.185 190.326 205.299C190.003 205.414 189.655 205.431 189.322 205.35C188.99 205.269 188.688 205.092 188.455 204.841C188.222 204.591 188.067 204.278 188.009 203.94C187.952 203.603 187.994 203.256 188.131 202.942C188.268 202.629 188.493 202.362 188.78 202.175C189.066 201.988 189.401 201.888 189.743 201.889C190.223 201.907 190.676 202.114 191.004 202.466C191.331 202.817 191.506 203.284 191.49 203.764Z" fill="white"/>
<path d="M196.916 203.79C196.933 204.03 196.9 204.271 196.82 204.498C196.739 204.725 196.613 204.933 196.449 205.109C196.285 205.285 196.086 205.426 195.865 205.522C195.644 205.618 195.406 205.667 195.165 205.667C194.925 205.667 194.687 205.618 194.466 205.522C194.245 205.426 194.046 205.285 193.882 205.109C193.718 204.933 193.592 204.725 193.511 204.498C193.431 204.271 193.398 204.03 193.415 203.79C193.398 203.549 193.431 203.308 193.511 203.081C193.592 202.854 193.718 202.646 193.882 202.47C194.046 202.294 194.245 202.153 194.466 202.057C194.687 201.961 194.925 201.912 195.165 201.912C195.406 201.912 195.644 201.961 195.865 202.057C196.086 202.153 196.285 202.294 196.449 202.47C196.613 202.646 196.739 202.854 196.82 203.081C196.9 203.308 196.933 203.549 196.916 203.79Z" fill="white"/>
<path d="M202.342 203.815C202.319 204.157 202.197 204.484 201.99 204.757C201.783 205.029 201.501 205.236 201.179 205.35C200.856 205.465 200.507 205.482 200.175 205.401C199.842 205.32 199.541 205.143 199.308 204.893C199.074 204.642 198.92 204.329 198.862 203.992C198.804 203.654 198.846 203.307 198.983 202.993C199.12 202.68 199.346 202.413 199.632 202.226C199.919 202.039 200.254 201.939 200.596 201.94C201.076 201.958 201.529 202.165 201.856 202.517C202.184 202.868 202.358 203.335 202.342 203.815Z" fill="white"/>
<path d="M207.769 203.841C207.745 204.184 207.621 204.513 207.413 204.786C207.204 205.06 206.919 205.266 206.595 205.379C206.27 205.492 205.919 205.507 205.585 205.422C205.252 205.337 204.951 205.156 204.72 204.902C204.488 204.647 204.337 204.33 204.284 203.99C204.231 203.65 204.28 203.302 204.423 202.989C204.566 202.676 204.798 202.413 205.09 202.231C205.382 202.049 205.721 201.957 206.065 201.966C206.537 201.994 206.98 202.206 207.298 202.557C207.616 202.907 207.785 203.368 207.769 203.841Z" fill="white"/>
</g>
<path d="M200.059 80.8215C200.651 80.5608 201.153 80.1318 201.503 79.5878C201.853 79.0439 202.035 78.409 202.027 77.7622C202.049 77.3418 201.986 76.9212 201.84 76.5262C201.694 76.1312 201.47 75.77 201.18 75.4646C200.89 75.1591 200.542 74.9159 200.155 74.7497C199.768 74.5835 199.352 74.4978 198.931 74.4978C198.51 74.4978 198.093 74.5835 197.707 74.7497C197.32 74.9159 196.971 75.1591 196.681 75.4646C196.392 75.77 196.167 76.1312 196.022 76.5262C195.876 76.9212 195.812 77.3418 195.834 77.7622C195.821 78.4155 196.002 79.058 196.354 79.6085C196.706 80.1591 197.212 80.593 197.811 80.8556C193.04 81.5714 193.253 86.7526 193.253 86.7526L204.532 86.8037C204.532 86.8037 204.796 81.5288 200.059 80.8215Z" fill="#220F97"/>
<path opacity="0.1" d="M200.059 80.8215C200.651 80.5608 201.153 80.1318 201.503 79.5878C201.853 79.0439 202.035 78.409 202.027 77.7622C202.049 77.3418 201.986 76.9212 201.84 76.5262C201.694 76.1312 201.47 75.77 201.18 75.4646C200.89 75.1591 200.542 74.9159 200.155 74.7497C199.768 74.5835 199.352 74.4978 198.931 74.4978C198.51 74.4978 198.093 74.5835 197.707 74.7497C197.32 74.9159 196.971 75.1591 196.681 75.4646C196.392 75.77 196.167 76.1312 196.022 76.5262C195.876 76.9212 195.812 77.3418 195.834 77.7622C195.821 78.4155 196.002 79.058 196.354 79.6085C196.706 80.1591 197.212 80.593 197.811 80.8556C193.04 81.5714 193.253 86.7526 193.253 86.7526L204.532 86.8037C204.532 86.8037 204.796 81.5288 200.059 80.8215Z" fill="black"/>
<path d="M218.387 90.1455L178.188 89.963L178.166 94.7692L218.365 94.9517L218.387 90.1455Z" fill="#220F97"/>
<path opacity="0.2" d="M218.387 90.1455L178.188 89.963L178.166 94.7692L218.365 94.9517L218.387 90.1455Z" fill="white"/>
<path d="M70.6024 115.053H70.2021L69.0435 115.138C68.4166 115.176 67.7931 115.259 67.1779 115.386C66.7795 115.442 66.3843 115.518 65.9939 115.616L64.6735 115.982C62.4261 116.672 60.3058 117.722 58.3953 119.092C55.8711 120.925 53.7634 123.272 52.2108 125.978C51.2982 127.538 50.572 129.2 50.047 130.929C49.4955 132.809 49.1779 134.749 49.1015 136.707C49.0507 137.735 49.0678 138.766 49.1526 139.792C49.1526 140.312 49.2974 140.831 49.3656 141.36C49.4229 141.892 49.5226 142.419 49.6637 142.936C50.4297 146.356 51.984 149.549 54.2025 152.261C56.421 154.973 59.2424 157.129 62.4416 158.556C64.757 159.556 67.2388 160.114 69.7591 160.201C72.3621 160.344 74.9678 159.971 77.4258 159.102L78.1755 158.821H78.2777L78.3629 158.872L89.1048 164.326L88.7896 164.598C87.6396 161.036 86.5322 157.585 85.4589 154.27V154.142L85.5526 154.048C88.1584 151.423 90.0929 148.207 91.1919 144.675C92.1873 141.445 92.4778 138.039 92.0438 134.687C91.6577 131.708 90.7002 128.832 89.2241 126.217C87.9517 123.97 86.3102 121.953 84.3685 120.251C82.7665 118.905 80.9935 117.776 79.0955 116.894C77.6593 116.274 76.1637 115.803 74.6317 115.488L72.928 115.207L71.6928 115.113L70.9432 115.062H70.6876C70.7725 115.052 70.8583 115.052 70.9432 115.062H71.7013L72.9365 115.113L74.6402 115.36C76.1912 115.652 77.7073 116.106 79.1636 116.715C81.0942 117.586 82.8993 118.712 84.5303 120.064C86.5077 121.758 88.184 123.775 89.4882 126.029C91.0062 128.673 91.993 131.588 92.393 134.61C92.8631 138.014 92.5929 141.479 91.6008 144.768C90.4946 148.375 88.5302 151.658 85.8763 154.338L85.9274 154.117C87.0007 157.432 88.1167 160.883 89.2752 164.436L89.4371 164.956L88.9515 164.709L78.2095 159.264H78.3969L77.6303 159.545C75.1249 160.427 72.471 160.809 69.8187 160.67C67.2441 160.572 64.7104 159.994 62.3479 158.965C57.8413 157.035 54.0919 153.679 51.6741 149.413C50.5615 147.442 49.749 145.317 49.2633 143.107C49.1303 142.577 49.0308 142.039 48.9652 141.496C48.897 140.959 48.7863 140.431 48.7607 139.902C48.5302 136.87 48.8505 133.821 49.7063 130.904C50.2443 129.15 50.9908 127.468 51.9297 125.893C53.5193 123.162 55.6709 120.801 58.2419 118.965C60.1839 117.591 62.3399 116.549 64.6224 115.88L65.9598 115.539C66.3534 115.448 66.7515 115.376 67.1524 115.326C67.7739 115.211 68.4032 115.142 69.035 115.121L70.2021 115.079C70.3348 115.061 70.4685 115.052 70.6024 115.053Z" fill="#220F97"/>
<path d="M75.458 134.926H73.882L70.4746 130.137V126.992C70.4746 126.992 68.0383 126.839 68.3279 130.955C68.6175 135.071 68.3279 134.023 68.3279 134.023C68.3279 134.023 63.1571 134.023 62.7312 134.491C62.3052 134.96 62.2797 139.954 62.2201 142.74C62.1874 143.412 62.3801 144.075 62.7675 144.625C63.1549 145.175 63.7148 145.579 64.3582 145.774C64.5386 145.824 64.7248 145.85 64.9119 145.851C66.2068 145.851 72.7916 144.802 72.7916 144.802H75.5091L75.458 134.926Z" fill="#220F97"/>
<path d="M79.9643 134.082L78.9932 144.854H76.3013V134.304L79.9643 134.082Z" fill="#220F97"/>
<path d="M112.071 353.371V346.085L99.0118 345.991L98.9011 357.01L99.7103 357.069C103.314 357.299 118.042 357.64 120.462 356.89C123.154 356.055 112.071 353.371 112.071 353.371Z" fill="#220F97"/>
<path d="M120.768 356.209C120.768 356.328 115.879 356.43 109.856 356.43C103.833 356.43 98.9437 356.328 98.9437 356.209C98.9437 356.089 103.833 355.987 109.856 355.987C115.879 355.987 120.768 356.089 120.768 356.209Z" fill="#263238"/>
<path d="M112.301 354.862C112.19 354.803 112.301 354.419 112.565 354.01C112.829 353.601 113.187 353.431 113.272 353.516C113.357 353.601 113.178 353.925 112.923 354.274C112.667 354.624 112.412 354.922 112.301 354.862Z" fill="#263238"/>
<path d="M113.136 355.339C113.016 355.339 113.076 354.862 113.332 354.41C113.587 353.959 113.928 353.686 114.022 353.754C114.115 353.822 113.962 354.206 113.723 354.606C113.485 355.007 113.246 355.382 113.136 355.339Z" fill="#263238"/>
<path d="M102.879 356.174C102.828 356.174 102.632 356.021 102.351 355.697C102.008 355.281 101.626 354.899 101.21 354.555C100.801 354.228 100.313 354.014 99.7956 353.933C99.3952 353.882 99.1397 353.933 99.1141 353.882C99.0886 353.831 99.3356 353.652 99.8041 353.618C100.422 353.605 101.026 353.81 101.508 354.197C101.96 354.566 102.341 355.013 102.632 355.518C102.828 355.893 102.93 356.14 102.879 356.174Z" fill="#263238"/>
<path d="M112.343 353.49C112.403 353.592 112.182 353.848 111.807 353.984C111.432 354.121 111.1 354.07 111.083 353.984C111.066 353.899 111.33 353.72 111.653 353.601C111.977 353.482 112.275 353.388 112.343 353.49Z" fill="#263238"/>
<path d="M112.139 352.783C112.139 352.911 111.798 353.013 111.355 353.021C110.912 353.03 110.563 352.928 110.572 352.808C110.58 352.689 110.929 352.578 111.355 352.57C111.781 352.561 112.122 352.664 112.139 352.783Z" fill="#263238"/>
<path d="M144.229 353.371V346.085L131.17 345.991L131.059 356.899L131.868 356.959C135.472 357.189 150.209 357.64 152.619 356.89C155.311 356.055 144.229 353.371 144.229 353.371Z" fill="#220F97"/>
<path d="M152.926 356.226C152.926 356.345 148.045 356.447 142.014 356.447C135.983 356.447 131.11 356.345 131.11 356.226C131.11 356.106 135.991 356.004 142.014 356.004C148.036 356.004 152.926 356.106 152.926 356.226Z" fill="#263238"/>
<path d="M144.459 354.862C144.356 354.803 144.459 354.419 144.723 354.01C144.987 353.601 145.345 353.431 145.43 353.516C145.515 353.601 145.336 353.925 145.08 354.274C144.825 354.624 144.569 354.922 144.459 354.862Z" fill="#263238"/>
<path d="M145.293 355.339C145.183 355.339 145.234 354.862 145.498 354.41C145.762 353.959 146.094 353.686 146.188 353.754C146.281 353.822 146.12 354.206 145.881 354.606C145.643 355.007 145.413 355.382 145.293 355.339Z" fill="#263238"/>
<path d="M135.037 356.174C134.986 356.174 134.799 356.021 134.509 355.697C134.166 355.281 133.783 354.899 133.367 354.555C132.958 354.228 132.471 354.014 131.953 353.933C131.561 353.882 131.297 353.933 131.272 353.882C131.246 353.831 131.493 353.652 131.962 353.618C132.58 353.605 133.183 353.81 133.666 354.197C134.12 354.563 134.501 355.011 134.79 355.518C134.986 355.893 135.088 356.14 135.037 356.174Z" fill="#263238"/>
<path d="M144.501 353.49C144.561 353.592 144.339 353.848 143.965 353.984C143.59 354.121 143.258 354.07 143.24 353.984C143.223 353.899 143.488 353.72 143.811 353.601C144.135 353.482 144.433 353.388 144.501 353.49Z" fill="#263238"/>
<path d="M144.314 352.783C144.314 352.911 143.973 353.013 143.53 353.021C143.087 353.03 142.746 352.928 142.755 352.808C142.763 352.689 143.104 352.578 143.53 352.57C143.956 352.561 144.314 352.664 144.314 352.783Z" fill="#263238"/>
<path d="M192.342 137.005C192.001 136.656 191.158 136.826 191.158 136.826C191.242 136.335 191.242 135.834 191.158 135.343C191.004 134.866 189.931 134.96 189.931 134.96C189.881 134.558 189.881 134.152 189.931 133.75C189.939 133.661 189.92 133.571 189.876 133.493C189.832 133.416 189.765 133.353 189.684 133.315C189.176 133.108 188.631 133.009 188.082 133.025C187.426 132.557 190.084 128.833 191.072 127.64C192.061 126.447 191.882 125.518 191.004 125.518C190.399 125.518 187.299 129.097 186.345 130.298C185.39 131.5 182.86 134.841 182.775 132.173C182.69 129.506 181.617 127.495 180.944 127.154C180.271 126.813 179.555 127.614 179.922 128.356C180.243 129.198 180.444 130.082 180.518 130.98C180.61 131.696 180.579 132.423 180.424 133.128C180.142 134.44 179.757 135.727 179.274 136.979H179.206C179.206 136.979 160.618 154.815 159.272 156.085C158.071 157.227 133.913 154.73 129.065 154.219C127.418 153.978 125.755 153.864 124.091 153.878C121.987 153.972 121.612 154.27 119.516 154.296C114.224 154.354 108.944 154.819 103.723 155.685C101.358 156.087 99.15 157.131 97.3384 158.703C95.5267 160.274 94.1814 162.314 93.4492 164.598C88.568 179.852 77.5109 215.959 75.5601 236.24C74.086 238.914 72.7553 241.665 71.5734 244.481C70.2019 248.213 70.5342 248.341 70.9942 248.426C72.2379 248.656 73.652 241.958 74.1801 243.577C74.7083 245.196 71.4968 251.562 72.8001 251.75C74.5038 251.988 75.8583 244.932 76.0202 244.37C76.182 243.807 77.0253 243.986 76.872 244.515C76.625 245.265 74.2312 253.215 75.9009 253.471C76.8209 253.607 76.9231 251.929 76.9231 251.929C76.9231 251.929 78.6268 244.319 79.402 244.472C80.1772 244.626 79.3509 249.116 78.9591 250.616C78.5672 252.116 79.1124 252.875 79.9131 252.508C80.4583 252.252 81.7617 247.693 82.1195 246.211C82.4773 244.728 83.3717 240.62 84.5728 242.998C85.7739 245.375 87.5969 246.756 88.3466 246.79C88.5155 246.771 88.6747 246.701 88.8037 246.59C88.9328 246.479 89.0257 246.333 89.0706 246.168C89.1155 246.004 89.1103 245.831 89.0557 245.67C89.001 245.508 88.8994 245.367 88.764 245.265C88.1192 244.635 87.5658 243.918 87.1199 243.134C86.7225 242.524 86.4343 241.849 86.268 241.14C85.9248 239.727 85.725 238.282 85.6717 236.828L85.5354 235.976C87.4436 226.525 92.9381 198.787 100.869 181.071L104.123 187.769L105.537 192.728L96.8652 214.143L133.853 213.658L128.333 192.405L135.037 170.248C142.286 170.41 160.899 170.683 164 169.277C167.902 167.572 188.082 142.075 188.082 142.075C189.398 141.053 190.658 139.961 191.856 138.803C191.856 138.803 193.083 137.772 192.342 137.005Z" fill="#FFBE9D"/>
<path d="M95.2382 198.319C96.3115 194.654 101.823 176.537 101.823 176.537C101.823 176.537 104.532 191.305 103.816 193.086C103.158 194.611 102.381 196.081 101.491 197.484C95.2382 207.002 96.056 211.766 96.056 211.766L133.836 210.615C133.921 205.332 130.795 193.044 130.147 191.084C129.5 189.124 131.655 182.707 131.655 182.707C131.655 182.707 135.914 178.369 135.761 176.137C135.68 174.131 135.432 172.136 135.02 170.172L158.02 171.024L157.296 155.429L124.261 152.123C123.111 155.369 112.71 153.776 112.71 153.776C101.482 154.151 100.784 156.213 96.1156 159.843C91.4474 163.473 83.721 194.629 83.721 194.629L95.2382 198.319Z" fill="#220F97"/>
<path d="M117.574 194.629C116.919 194.746 116.252 194.78 115.589 194.731C114.354 194.731 112.659 194.646 110.793 194.458C108.927 194.271 107.241 194.007 106.04 193.768C105.377 193.683 104.728 193.517 104.106 193.274C104.772 193.274 105.436 193.337 106.091 193.461C107.3 193.615 108.979 193.828 110.836 194.015C112.693 194.203 114.379 194.331 115.598 194.416C116.262 194.424 116.923 194.495 117.574 194.629Z" fill="#263238"/>
<path d="M120.164 191.416C119.509 191.737 118.816 191.975 118.102 192.123C114.703 193.017 111.197 193.433 107.684 193.359C106.957 193.383 106.23 193.314 105.52 193.155C106.238 193.064 106.961 193.027 107.684 193.044C109.021 193.001 110.861 192.907 112.889 192.669C114.916 192.43 116.722 192.089 118 191.817C118.71 191.627 119.433 191.493 120.164 191.416Z" fill="#263238"/>
<path d="M132.873 177.083C132.856 177.732 132.767 178.378 132.609 179.008C132.388 180.193 132.047 181.812 131.612 183.585C131.178 185.357 130.761 186.993 130.386 188.101C130.235 188.735 130.012 189.35 129.721 189.933C129.769 189.286 129.889 188.645 130.079 188.024C130.403 186.695 130.769 185.161 131.178 183.482C131.587 181.804 131.979 180.27 132.302 178.94C132.418 178.3 132.609 177.677 132.873 177.083Z" fill="#263238"/>
<path d="M95.6385 196.146C93.6677 195.841 91.7228 195.388 89.8203 194.791C87.8762 194.336 85.9685 193.738 84.1128 193.001C86.0826 193.311 88.0271 193.763 89.931 194.356C91.8755 194.809 93.7833 195.407 95.6385 196.146Z" fill="#263238"/>
<path d="M135.429 169.984C135.108 170.039 134.779 170.039 134.458 169.984C133.568 169.893 132.694 169.684 131.86 169.362C130.466 168.838 129.197 168.028 128.135 166.985C127.073 165.942 126.241 164.687 125.692 163.303C125.086 161.78 124.827 160.141 124.934 158.505C124.972 157.156 125.375 155.843 126.101 154.705C126.611 153.938 127.374 153.374 128.256 153.111C128.492 153.046 128.736 153.014 128.98 153.017C129.151 153.017 129.236 153.017 129.236 153.017C129.236 153.017 128.878 153.017 128.307 153.247C127.498 153.547 126.811 154.107 126.357 154.841C125.198 156.665 124.874 159.997 126.11 163.107C126.684 164.574 127.584 165.891 128.742 166.959C129.69 167.833 130.782 168.536 131.97 169.038C133.085 169.479 134.245 169.796 135.429 169.984Z" fill="#263238"/>
<path d="M155.286 170.717C155.073 168.104 155.004 165.481 155.081 162.86C155.014 160.241 155.094 157.621 155.32 155.011C155.533 157.622 155.601 160.242 155.524 162.86C155.596 165.481 155.516 168.105 155.286 170.717Z" fill="#263238"/>
<path d="M124.04 153.077C124.133 151.177 124.329 149.029 124.329 149.029C124.329 149.029 129.031 148.509 129.313 143.652C129.594 138.795 129.313 127.589 129.313 127.589L120.794 123.226L111.338 130.665L112.795 154.952L121.467 155.506C122.13 155.524 122.773 155.279 123.255 154.823C123.737 154.368 124.02 153.74 124.04 153.077Z" fill="#FFBE9D"/>
<path d="M124.883 139.809C124.883 139.809 124.883 139.902 124.806 140.013C124.743 140.094 124.661 140.157 124.567 140.199C124.474 140.24 124.372 140.259 124.27 140.252C123.724 140.252 123.196 139.621 123.009 138.888C122.92 138.533 122.92 138.161 123.009 137.806C123.026 137.651 123.082 137.503 123.171 137.375C123.261 137.247 123.38 137.143 123.52 137.073C123.634 137.026 123.763 137.026 123.878 137.073C123.963 137.115 124.031 137.184 124.074 137.269C124.133 137.414 124.074 137.508 124.074 137.499C124.074 137.491 124.074 137.414 123.988 137.329C123.944 137.268 123.878 137.225 123.805 137.21C123.731 137.194 123.654 137.206 123.588 137.244C123.484 137.307 123.397 137.396 123.336 137.501C123.275 137.607 123.241 137.727 123.239 137.849C123.167 138.166 123.167 138.495 123.239 138.812C123.409 139.476 123.869 140.013 124.278 140.064C124.358 140.075 124.439 140.069 124.517 140.047C124.595 140.025 124.667 139.988 124.73 139.937C124.832 139.868 124.866 139.8 124.883 139.809Z" fill="#EB996E"/>
<path d="M132.234 124.964C131.578 122.731 129.202 121.623 127.038 121.01C123.741 120.073 120.181 119.663 116.961 120.848C113.741 122.032 109.873 124.112 109.873 127.665C107.973 127.512 106.883 129.174 106.133 131.236C105.654 132.492 105.367 133.814 105.282 135.156C105.043 139.809 103.74 146.234 100.724 149.643C99.0204 151.543 96.6607 152.855 95.6896 155.224C94.8377 157.278 95.2807 159.715 94.4885 161.795C93.7814 163.627 92.2225 164.931 91.081 166.524C89.9181 168.332 89.2337 170.406 89.0921 172.551C88.9505 174.696 89.3565 176.842 90.2718 178.787C91.1936 180.682 92.4915 182.37 94.0864 183.747C95.6813 185.124 97.5397 186.162 99.5485 186.797C103.528 188.008 107.771 188.05 111.773 186.917C114.776 186.198 117.578 184.809 119.968 182.852C122.413 180.854 124.092 178.072 124.721 174.978C125.326 171.501 124.355 167.964 123.631 164.505C121.365 153.571 122.012 153 124.874 142.851C124.942 142.672 124.977 142.485 125.028 142.306C125.079 142.127 125.104 142.041 125.138 141.905C125.22 141.504 125.262 141.096 125.266 140.686C124.848 140.842 124.394 140.875 123.958 140.781C123.522 140.688 123.122 140.472 122.804 140.158C122.486 139.824 122.264 139.41 122.162 138.96C122.06 138.51 122.082 138.04 122.225 137.602C122.426 137.122 122.725 136.689 123.104 136.333C123.483 135.976 123.932 135.703 124.423 135.531C125.368 135.139 126.382 134.934 127.311 134.5C129.278 133.562 130.641 131.619 131.57 129.583C132.333 128.171 132.569 126.534 132.234 124.964Z" fill="#263238"/>
<path d="M125.224 140.039C125.404 140.305 125.552 140.591 125.667 140.891C125.922 141.428 126.263 142.186 126.638 143.064L126.706 143.226H126.527L125.675 143.303C125.087 143.303 124.593 143.413 124.014 143.405C123.964 143.394 123.917 143.37 123.878 143.335C123.839 143.301 123.81 143.258 123.792 143.209C123.767 143.131 123.767 143.048 123.792 142.97C123.812 142.855 123.838 142.742 123.869 142.629L124.022 142.024C124.1 141.621 124.219 141.227 124.38 140.848C124.364 141.26 124.304 141.668 124.201 142.067L124.082 142.672C124.039 142.877 123.963 143.192 124.082 143.166C124.508 143.166 125.113 143.073 125.675 143.038L126.527 142.962L126.416 143.149C126.05 142.297 125.743 141.496 125.564 140.942C125.407 140.659 125.293 140.355 125.224 140.039Z" fill="#220F97"/>
<path d="M96.0559 211.766L133.836 210.615L150.277 274.818L147.253 348.462H127.277L129.721 276.386L115.112 231.69L117.361 351.317L97.1718 351.615L95.0507 239.172C94.957 236.044 93.9347 228.997 94.3181 225.895L96.0559 211.766Z" fill="#263238"/>
<path d="M120.138 232.601C119.52 232.64 118.899 232.603 118.289 232.491C117.148 232.354 115.589 232.116 113.877 231.775C112.165 231.434 110.631 231.042 109.524 230.727C108.932 230.597 108.359 230.39 107.82 230.113C107.82 229.985 110.597 230.65 114.005 231.34C117.412 232.031 120.155 232.474 120.138 232.601Z" fill="#455A64"/>
<path d="M147.048 344.423C147.048 344.542 142.525 344.645 136.945 344.645C131.365 344.645 126.834 344.542 126.834 344.423C126.834 344.304 131.357 344.202 136.945 344.202C142.533 344.202 147.048 344.295 147.048 344.423Z" fill="#455A64"/>
<path d="M117.182 348.207C117.182 348.334 112.787 348.428 107.369 348.428C101.951 348.428 97.5638 348.334 97.5638 348.207C97.5638 348.079 101.959 347.985 107.369 347.985C112.778 347.985 117.182 348.087 117.182 348.207Z" fill="#455A64"/>
<path d="M114.575 347.9C114.456 347.9 113.928 321.764 113.391 289.526C112.855 257.289 112.539 231.136 112.65 231.136C112.761 231.136 113.306 257.263 113.834 289.518C114.362 321.772 114.703 347.9 114.575 347.9Z" fill="#455A64"/>
<path d="M144.365 344.423C144.356 344.307 144.356 344.19 144.365 344.074V343.051C144.365 342.131 144.433 340.81 144.484 339.131C144.603 335.722 144.774 330.771 144.987 324.704C145.447 312.501 146.094 295.679 146.801 277.11C146.801 276.931 146.801 276.761 146.801 276.607V276.667C142.329 258.772 138.283 242.529 135.344 230.778L131.936 216.879C131.544 215.251 131.246 213.982 131.033 213.095C130.931 212.678 130.863 212.354 130.803 212.107C130.77 211.996 130.75 211.881 130.744 211.766C130.788 211.873 130.822 211.985 130.846 212.098C130.914 212.337 130.999 212.661 131.119 213.07C131.349 213.922 131.681 215.217 132.107 216.836C132.959 220.126 134.16 224.864 135.659 230.701C138.623 242.444 142.712 258.644 147.244 276.565V276.624C147.244 276.778 147.244 276.957 147.244 277.127C146.486 295.696 145.796 312.509 145.293 324.712C145.029 330.788 144.808 335.705 144.655 339.131C144.569 340.835 144.501 342.131 144.459 343.051C144.459 343.486 144.408 343.827 144.399 344.074C144.4 344.191 144.389 344.308 144.365 344.423Z" fill="#455A64"/>
<path d="M137.848 275.108C136.413 275.58 134.935 275.908 133.435 276.088C131.595 276.403 130.028 276.625 129.321 276.659V276.488C129.551 276.556 129.67 276.599 129.67 276.633C129.67 276.667 129.525 276.633 129.287 276.633H128.776L129.287 276.48C129.951 276.284 131.519 275.96 133.359 275.627C134.835 275.307 136.338 275.133 137.848 275.108Z" fill="#455A64"/>
<path d="M137.499 277.553C136.17 277.614 134.839 277.554 133.521 277.374C132.19 277.347 130.864 277.202 129.56 276.94C132.222 276.723 134.902 276.93 137.499 277.553Z" fill="#455A64"/>
<path opacity="0.2" d="M95.8941 213.121C96.3415 213.696 96.9051 214.169 97.548 214.512C98.1909 214.854 98.8987 215.056 99.6252 215.106C101.147 215.287 102.686 215.258 104.2 215.021C113.954 213.939 124.287 212.942 133.836 210.615C121.475 211.306 108.416 211.076 96.056 211.766L95.9282 212.823" fill="black"/>
<g opacity="0.2">
<path d="M108.629 230.548L115.598 257.596L115.112 231.69L108.629 230.548Z" fill="black"/>
</g>
</svg>
