<svg width="21" height="21" viewBox="0 0 21 21" fill="none" xmlns="http://www.w3.org/2000/svg">
<g clip-path="url(#clip0_11_297)">
<path d="M19.5205 11.1738C19.5205 10.455 19.4611 9.93001 19.3323 9.38564H10.9492V12.6325H15.8698C15.7705 13.4394 15.2348 14.655 14.0448 15.4713L14.028 15.58L16.678 17.5925L16.8617 17.6106C18.5486 16.0838 19.5205 13.8381 19.5205 11.1744V11.1738Z" fill="#4285F4"/>
<path d="M10.9483 19.73C13.3589 19.73 15.3827 18.9525 16.8608 17.6106L14.0439 15.4713C13.2895 15.9869 12.2777 16.3463 10.9483 16.3463C9.82823 16.3463 8.73624 15.9958 7.82544 15.344C6.91464 14.6921 6.2307 13.7715 5.86953 12.7113L5.76516 12.72L3.00891 14.81L2.97266 14.9081C4.44078 17.7663 7.45703 19.73 10.9483 19.73Z" fill="#34A853"/>
<path d="M5.86988 12.7106C5.67491 12.1542 5.57436 11.569 5.57238 10.9794C5.57238 10.3769 5.68176 9.79376 5.85988 9.24938L5.85488 9.13376L3.06426 7.00938L2.97301 7.05188C2.34851 8.2672 2.02203 9.61363 2.02051 10.98C2.02051 12.39 2.36801 13.7219 2.97301 14.9075L5.86988 12.7113V12.7106Z" fill="#FBBC05"/>
<path d="M10.9479 5.61314C12.6248 5.61314 13.7554 6.32314 14.4004 6.91626L16.9204 4.50501C15.3729 3.09501 13.3592 2.23001 10.9479 2.23001C7.45668 2.23001 4.44043 4.19376 2.97168 7.05189L5.85918 9.24939C6.58293 7.14001 8.5873 5.61314 10.9479 5.61314Z" fill="#EB4335"/>
</g>
<defs>
<clipPath id="clip0_11_297">
<rect width="20" height="20" fill="white" transform="translate(0.769531 0.980011)"/>
</clipPath>
</defs>
</svg>
